<svg xmlns="http://www.w3.org/2000/svg" viewBox="0 0 860 420" font-family="system-ui,sans-serif">
<rect width="860" height="420" fill="#ffffff"/>
<text x="56" y="24" font-size="16" font-weight="700" fill="#222">Mijn meterkast, 13 maanden gemeten (kWh per maand)</text>
<line x1="56" y1="362" x2="844" y2="362" stroke="#e5e5e5"/><text x="48" y="366" text-anchor="end" font-size="11" fill="#888">0</text><line x1="56" y1="287.6470588235294" x2="844" y2="287.6470588235294" stroke="#e5e5e5"/><text x="48" y="291.6470588235294" text-anchor="end" font-size="11" fill="#888">200</text><line x1="56" y1="213.2941176470588" x2="844" y2="213.2941176470588" stroke="#e5e5e5"/><text x="48" y="217.2941176470588" text-anchor="end" font-size="11" fill="#888">400</text><line x1="56" y1="138.94117647058823" x2="844" y2="138.94117647058823" stroke="#e5e5e5"/><text x="48" y="142.94117647058823" text-anchor="end" font-size="11" fill="#888">600</text><line x1="56" y1="64.58823529411762" x2="844" y2="64.58823529411762" stroke="#e5e5e5"/><text x="48" y="68.58823529411762" text-anchor="end" font-size="11" fill="#888">800</text><rect x="65.7" y="301.4" width="16.4" height="60.6" fill="#e2574c" rx="2"/><rect x="84.1" y="214.8" width="16.4" height="147.2" fill="#3f9e6e" rx="2"/><rect x="126.3" y="275.8" width="16.4" height="86.2" fill="#e2574c" rx="2"/><rect x="144.7" y="216.3" width="16.4" height="145.7" fill="#3f9e6e" rx="2"/><rect x="186.9" y="283.2" width="16.4" height="78.8" fill="#e2574c" rx="2"/><rect x="205.3" y="264.6" width="16.4" height="97.4" fill="#3f9e6e" rx="2"/><rect x="247.5" y="294.7" width="16.4" height="67.3" fill="#e2574c" rx="2"/><rect x="265.9" y="301.4" width="16.4" height="60.6" fill="#3f9e6e" rx="2"/><rect x="308.2" y="238.6" width="16.4" height="123.4" fill="#e2574c" rx="2"/><rect x="326.5" y="320.4" width="16.4" height="41.6" fill="#3f9e6e" rx="2"/><rect x="368.8" y="258.3" width="16.4" height="103.7" fill="#e2574c" rx="2"/><rect x="387.1" y="337.1" width="16.4" height="24.9" fill="#3f9e6e" rx="2"/><rect x="429.4" y="173.5" width="16.4" height="188.5" fill="#e2574c" rx="2"/><rect x="447.8" y="353.4" width="16.4" height="8.6" fill="#3f9e6e" rx="2"/><rect x="490.0" y="91.4" width="16.4" height="270.6" fill="#e2574c" rx="2"/><rect x="508.4" y="360.1" width="16.4" height="1.9" fill="#3f9e6e" rx="2"/><rect x="550.6" y="83.2" width="16.4" height="278.8" fill="#e2574c" rx="2"/><rect x="569.0" y="357.5" width="16.4" height="4.5" fill="#3f9e6e" rx="2"/><rect x="611.2" y="160.1" width="16.4" height="201.9" fill="#e2574c" rx="2"/><rect x="629.6" y="348.2" width="16.4" height="13.8" fill="#3f9e6e" rx="2"/><rect x="671.9" y="144.5" width="16.4" height="217.5" fill="#e2574c" rx="2"/><rect x="690.2" y="312.6" width="16.4" height="49.4" fill="#3f9e6e" rx="2"/><rect x="732.5" y="238.2" width="16.4" height="123.8" fill="#e2574c" rx="2"/><rect x="750.8" y="254.2" width="16.4" height="107.8" fill="#3f9e6e" rx="2"/><rect x="793.1" y="235.2" width="16.4" height="126.8" fill="#e2574c" rx="2"/><rect x="811.4" y="264.6" width="16.4" height="97.4" fill="#3f9e6e" rx="2"/><path d="M86.3,106.2 L146.9,57.2 L207.5,79.5 L268.2,117.0 L328.8,191.0 L389.4,282.8 L450.0,320.7 L510.6,337.5 L571.2,334.5 L631.8,305.9 L692.5,207.7 L753.1,121.1 L813.7,83.5 " fill="none" stroke="#e8a13c" stroke-width="3" stroke-linejoin="round"/>
<circle cx="86.3" cy="106.2" r="3.5" fill="#e8a13c"/><circle cx="146.9" cy="57.2" r="3.5" fill="#e8a13c"/><circle cx="207.5" cy="79.5" r="3.5" fill="#e8a13c"/><circle cx="268.2" cy="117.0" r="3.5" fill="#e8a13c"/><circle cx="328.8" cy="191.0" r="3.5" fill="#e8a13c"/><circle cx="389.4" cy="282.8" r="3.5" fill="#e8a13c"/><circle cx="450.0" cy="320.7" r="3.5" fill="#e8a13c"/><circle cx="510.6" cy="337.5" r="3.5" fill="#e8a13c"/><circle cx="571.2" cy="334.5" r="3.5" fill="#e8a13c"/><circle cx="631.8" cy="305.9" r="3.5" fill="#e8a13c"/><circle cx="692.5" cy="207.7" r="3.5" fill="#e8a13c"/><circle cx="753.1" cy="121.1" r="3.5" fill="#e8a13c"/><circle cx="813.7" cy="83.5" r="3.5" fill="#e8a13c"/>
<text x="86.3" y="382" text-anchor="middle" font-size="12" fill="#555">mei '25</text><text x="146.9" y="382" text-anchor="middle" font-size="12" fill="#555">jun</text><text x="207.5" y="382" text-anchor="middle" font-size="12" fill="#555">jul</text><text x="268.2" y="382" text-anchor="middle" font-size="12" fill="#555">aug</text><text x="328.8" y="382" text-anchor="middle" font-size="12" fill="#555">sep</text><text x="389.4" y="382" text-anchor="middle" font-size="12" fill="#555">okt</text><text x="450.0" y="382" text-anchor="middle" font-size="12" fill="#555">nov</text><text x="510.6" y="382" text-anchor="middle" font-size="12" fill="#555">dec</text><text x="571.2" y="382" text-anchor="middle" font-size="12" fill="#555">jan '26</text><text x="631.8" y="382" text-anchor="middle" font-size="12" fill="#555">feb</text><text x="692.5" y="382" text-anchor="middle" font-size="12" fill="#555">mrt</text><text x="753.1" y="382" text-anchor="middle" font-size="12" fill="#555">apr</text><text x="813.7" y="382" text-anchor="middle" font-size="12" fill="#555">mei</text>
<g font-size="12.5"><rect x="56" y="398" width="12" height="12" fill="#e2574c" rx="2"/><text x="73" y="408" fill="#444">afname van het net</text>
<rect x="226" y="398" width="12" height="12" fill="#3f9e6e" rx="2"/><text x="243" y="408" fill="#444">teruglevering</text>
<line x1="386" y1="404" x2="412" y2="404" stroke="#e8a13c" stroke-width="3"/><text x="418" y="408" fill="#444">zonopwek (Enphase)</text></g>
</svg>